<svg width="12" height="12" viewBox="0 0 12 12" fill="none" xmlns="http://www.w3.org/2000/svg">
<path d="M11.25 5.25H2.8725L6.5325 1.59C6.825 1.2975 6.825 0.817497 6.5325 0.524997C6.46312 0.455469 6.3807 0.400309 6.28997 0.362672C6.19924 0.325036 6.10198 0.305664 6.00375 0.305664C5.90553 0.305664 5.80827 0.325036 5.71754 0.362672C5.62681 0.400309 5.54439 0.455469 5.475 0.524997L0.532505 5.4675C0.462977 5.53688 0.407816 5.6193 0.37018 5.71003C0.332544 5.80076 0.313171 5.89802 0.313171 5.99625C0.313171 6.09447 0.332544 6.19173 0.37018 6.28246C0.407816 6.37319 0.462977 6.45561 0.532505 6.525L5.475 11.4675C5.54444 11.5369 5.62687 11.592 5.7176 11.6296C5.80832 11.6672 5.90556 11.6865 6.00375 11.6865C6.10195 11.6865 6.19919 11.6672 6.28991 11.6296C6.38064 11.592 6.46307 11.5369 6.5325 11.4675C6.60194 11.3981 6.65702 11.3156 6.6946 11.2249C6.73218 11.1342 6.75152 11.0369 6.75152 10.9387C6.75152 10.8405 6.73218 10.7433 6.6946 10.6526C6.65702 10.5619 6.60194 10.4794 6.5325 10.41L2.8725 6.75H11.25C11.6625 6.75 12 6.4125 12 6C12 5.5875 11.6625 5.25 11.25 5.25Z" fill="#6D6E9C"/>
</svg>
