<svg width="14" height="16" viewBox="0 0 14 16" fill="none" xmlns="http://www.w3.org/2000/svg">
<path d="M7.21269 1.62508C7.84079 1.62508 8.44317 1.86909 8.8873 2.30343C9.33144 2.73777 9.58095 3.32686 9.58095 3.9411V4.40431H4.84442V3.9411C4.84442 3.32686 5.09393 2.73777 5.53807 2.30343C5.9822 1.86909 6.58458 1.62508 7.21269 1.62508ZM10.5283 4.40431V3.9411C10.5283 3.08116 10.1789 2.25643 9.55715 1.64836C8.93536 1.04028 8.09203 0.698669 7.21269 0.698669C6.33334 0.698669 5.49001 1.04028 4.86822 1.64836C4.24643 2.25643 3.89711 3.08116 3.89711 3.9411V4.40431H0.581543V13.6684C0.581543 14.1598 0.781153 14.6311 1.13646 14.9785C1.49177 15.326 1.97367 15.5212 2.47616 15.5212H11.9492C12.4517 15.5212 12.9336 15.326 13.2889 14.9785C13.6442 14.6311 13.8438 14.1598 13.8438 13.6684V4.40431H10.5283Z" fill="#DADAE5"/>
</svg>
