<svg width="20" height="21" viewBox="0 0 20 21" fill="none" xmlns="http://www.w3.org/2000/svg">
<g clip-path="url(#clip0)">
<path d="M4.87956 18.6341C5.63296 18.6341 6.36944 18.4107 6.99587 17.9922C7.6223 17.5736 8.11054 16.9787 8.39885 16.2826C8.68716 15.5866 8.7626 14.8207 8.61562 14.0817C8.46864 13.3428 8.10584 12.6641 7.57311 12.1313C7.04038 11.5986 6.36163 11.2358 5.62271 11.0888C4.88379 10.9418 4.11788 11.0173 3.42183 11.3056C2.72578 11.5939 2.13085 12.0821 1.71229 12.7086C1.29372 13.335 1.07031 14.0715 1.07031 14.8249C1.07145 15.8348 1.47315 16.803 2.18727 17.5172C2.9014 18.2313 3.86964 18.633 4.87956 18.6341ZM4.87956 12.2346C5.39187 12.2346 5.89268 12.3865 6.31865 12.6711C6.74462 12.9558 7.07662 13.3603 7.27268 13.8336C7.46873 14.3069 7.52003 14.8278 7.42008 15.3302C7.32013 15.8327 7.07343 16.2942 6.71117 16.6565C6.34892 17.0187 5.88737 17.2654 5.3849 17.3654C4.88244 17.4653 4.36161 17.414 3.8883 17.218C3.41499 17.0219 3.01044 16.6899 2.72582 16.264C2.44119 15.838 2.28927 15.3372 2.28927 14.8249C2.29005 14.1381 2.5632 13.4797 3.04881 12.9941C3.53441 12.5085 4.19281 12.2354 4.87956 12.2346Z" fill="#DADAE5"/>
<path d="M11.7363 14.8249C11.7363 15.5783 11.9597 16.3148 12.3783 16.9412C12.7969 17.5677 13.3918 18.0559 14.0878 18.3442C14.7839 18.6325 15.5498 18.708 16.2887 18.561C17.0276 18.414 17.7064 18.0512 18.2391 17.5185C18.7719 16.9858 19.1347 16.307 19.2816 15.5681C19.4286 14.8292 19.3532 14.0632 19.0649 13.3672C18.7766 12.6711 18.2883 12.0762 17.6619 11.6577C17.0355 11.2391 16.299 11.0157 15.5456 11.0157C14.5357 11.0168 13.5674 11.4185 12.8533 12.1326C12.1392 12.8468 11.7375 13.815 11.7363 14.8249ZM15.5456 12.2346C16.0579 12.2346 16.5587 12.3866 16.9847 12.6712C17.4106 12.9558 17.7426 13.3604 17.9387 13.8337C18.1347 14.307 18.186 14.8278 18.0861 15.3303C17.9861 15.8327 17.7394 16.2943 17.3772 16.6565C17.0149 17.0188 16.5534 17.2655 16.0509 17.3655C15.5485 17.4654 15.0276 17.4141 14.5543 17.2181C14.081 17.022 13.6765 16.69 13.3918 16.264C13.1072 15.8381 12.9553 15.3372 12.9553 14.8249C12.9561 14.1382 13.2292 13.4798 13.7148 12.9942C14.2004 12.5086 14.8588 12.2354 15.5456 12.2346Z" fill="#DADAE5"/>
<path d="M12.571 5.68946C13.2881 5.68946 13.8695 5.10811 13.8695 4.39097C13.8695 3.67383 13.2881 3.09247 12.571 3.09247C11.8538 3.09247 11.2725 3.67383 11.2725 4.39097C11.2725 5.10811 11.8538 5.68946 12.571 5.68946Z" fill="#DADAE5"/>
<path d="M7.73471 10.9509L9.603 12.7942V16.1962H10.822V12.6668C10.8216 12.5457 10.7974 12.4259 10.7507 12.3143C10.704 12.2026 10.6358 12.1012 10.5498 12.016L8.59667 10.089L11.128 7.55761L13.3437 9.82606C13.429 9.91299 13.5308 9.9821 13.6431 10.0294C13.7553 10.0766 13.8759 10.1011 13.9977 10.1014H15.0883V8.88247H14.126L10.603 5.27557L10.5849 5.29324L10.2649 4.97327L5.99854 9.23963L7.72237 10.9635L7.73471 10.9509Z" fill="#DADAE5"/>
</g>
<defs>
<clipPath id="clip0">
<rect width="19.5034" height="19.5034" fill="white" transform="translate(0.460938 0.806885)"/>
</clipPath>
</defs>
</svg>
