<svg width="17" height="17" viewBox="0 0 17 17" fill="none" xmlns="http://www.w3.org/2000/svg">
<path d="M8.5 0C9.8526 0 11.1498 0.53732 12.1062 1.49376C13.0627 2.45019 13.6 3.7474 13.6 5.1V5.95H17V7.65H16.0081L15.3646 15.3705C15.3469 15.583 15.2501 15.781 15.0933 15.9253C14.9365 16.0697 14.7311 16.1499 14.518 16.15H2.482C2.26886 16.1499 2.06354 16.0697 1.90674 15.9253C1.74993 15.781 1.65309 15.583 1.6354 15.3705L0.9911 7.65H0V5.95H3.4V5.1C3.4 3.7474 3.93732 2.45019 4.89376 1.49376C5.85019 0.53732 7.1474 0 8.5 0ZM9.35 9.35H7.65V12.75H9.35V9.35ZM5.95 9.35H4.25V12.75H5.95V9.35ZM12.75 9.35H11.05V12.75H12.75V9.35ZM8.5 1.7C7.62769 1.7 6.78876 2.03527 6.15671 2.63647C5.52466 3.23766 5.14787 4.05878 5.10425 4.93L5.1 5.1V5.95H11.9V5.1C11.9 4.22769 11.5647 3.38876 10.9635 2.75671C10.3623 2.12466 9.54121 1.74787 8.67 1.70425L8.5 1.7Z" fill="#6D6E9C"/>
</svg>
