<svg width="20" height="20" viewBox="0 0 20 20" fill="none" xmlns="http://www.w3.org/2000/svg">
<path d="M14.5934 16.3334H19.8334C19.3934 10.5267 16.8934 6.92002 13.6867 4.78669L15.1467 1.60002C15.1908 1.4989 15.2092 1.38841 15.2001 1.27846C15.191 1.1685 15.1548 1.06252 15.0947 0.970014C15.0345 0.877509 14.9524 0.801373 14.8556 0.748433C14.7588 0.695493 14.6504 0.667405 14.54 0.666687H5.40003C5.28971 0.667405 5.18128 0.695493 5.08448 0.748433C4.98768 0.801373 4.90554 0.877509 4.84541 0.970014C4.78528 1.06252 4.74905 1.1685 4.73997 1.27846C4.73088 1.38841 4.74923 1.4989 4.79337 1.60002L5.59337 3.33335H12.34L11.74 4.66669H10.5067C10.8834 5.67952 11.1602 6.72671 11.3334 7.79335C11.4455 8.455 11.5168 9.12294 11.5467 9.79335L10.4934 10.5334C10.4962 9.67104 10.4248 8.81009 10.28 7.96002C10.0958 6.82867 9.77804 5.72317 9.33337 4.66669H8.6667C8.05146 5.44406 7.49863 6.26885 7.01337 7.13335C6.6221 7.87492 6.28996 8.6462 6.02003 9.44002L5.1067 8.83335C5.3733 8.06612 5.70101 7.32151 6.0867 6.60669C6.47641 5.93638 6.90376 5.28868 7.3667 4.66669H6.20003L6.25337 4.78002C2.72003 7.13335 0.0333657 11.2667 0.0333657 18.1667C0.0243569 18.3117 0.0441776 18.4571 0.0916826 18.5945C0.139188 18.7318 0.213435 18.8584 0.310136 18.9668C0.406837 19.0753 0.524075 19.1636 0.655076 19.2265C0.786077 19.2894 0.928245 19.3257 1.07337 19.3334H6.4067C6.17769 19.095 6.01957 18.7976 5.95005 18.4745C5.88053 18.1513 5.90236 17.8152 6.01309 17.5038C6.12383 17.1923 6.31909 16.9179 6.577 16.7112C6.83492 16.5044 7.14529 16.3736 7.47337 16.3334C7.31371 16.0626 7.2286 15.7544 7.2267 15.44C7.2267 14.9626 7.41634 14.5048 7.75391 14.1672C8.09147 13.8297 8.54931 13.64 9.0267 13.64H13.0267C13.5041 13.64 13.9619 13.8297 14.2995 14.1672C14.6371 14.5048 14.8267 14.9626 14.8267 15.44C14.8301 15.7533 14.7496 16.0618 14.5934 16.3334Z" fill="#57C168"/>
</svg>
