<svg width="19" height="18" viewBox="0 0 19 18" fill="none" xmlns="http://www.w3.org/2000/svg">
<path d="M9.49998 12C11.2489 12 12.6666 10.6569 12.6666 9C12.6666 7.34315 11.2489 6 9.49998 6C7.75108 6 6.33331 7.34315 6.33331 9C6.33331 10.6569 7.75108 12 9.49998 12Z" fill="#F5313F"/>
<path d="M10.2916 3.05175V1.5H8.70831V3.05175C7.31522 3.22026 6.02058 3.82213 5.02751 4.76293C4.03445 5.70373 3.39914 6.93022 3.22127 8.25H1.58331V9.75H3.22127C3.39888 11.0699 4.0341 12.2965 5.02722 13.2374C6.02033 14.1782 7.31511 14.78 8.70831 14.9482V16.5H10.2916V14.9482C11.6849 14.7801 12.9798 14.1784 13.9729 13.2375C14.966 12.2966 15.6012 11.0699 15.7787 9.75H17.4166V8.25H15.7787C15.6011 6.93013 14.9659 5.70349 13.9727 4.76265C12.9796 3.8218 11.6848 3.22001 10.2916 3.05175ZM9.49998 13.5C6.88036 13.5 4.74998 11.4818 4.74998 9C4.74998 6.51825 6.88036 4.5 9.49998 4.5C12.1196 4.5 14.25 6.51825 14.25 9C14.25 11.4818 12.1196 13.5 9.49998 13.5Z" fill="#F5313F"/>
</svg>
