<svg width="13" height="13" viewBox="0 0 13 13" fill="none" xmlns="http://www.w3.org/2000/svg">
<path d="M12.6819 6.59953L7.0656 0.353923C6.82909 0.0903589 6.37479 0.0903589 6.13828 0.353923L0.52194 6.59953C0.4411 6.68921 0.388037 6.80047 0.369203 6.91978C0.350369 7.03908 0.366576 7.1613 0.415853 7.27155C0.515699 7.49702 0.739105 7.64192 0.9856 7.64192H2.23368V12.0138C2.23368 12.1795 2.29942 12.3383 2.41645 12.4555C2.53348 12.5726 2.69221 12.6384 2.85771 12.6384H4.72983C4.89533 12.6384 5.05406 12.5726 5.17109 12.4555C5.28812 12.3383 5.35386 12.1795 5.35386 12.0138V9.5156H7.85002V12.0138C7.85002 12.1795 7.91576 12.3383 8.03279 12.4555C8.14982 12.5726 8.30855 12.6384 8.47405 12.6384H10.3462C10.5117 12.6384 10.6704 12.5726 10.7874 12.4555C10.9045 12.3383 10.9702 12.1795 10.9702 12.0138V7.64192H12.2183C12.3391 7.64243 12.4575 7.60774 12.559 7.54208C12.6605 7.47642 12.7407 7.38261 12.7899 7.27211C12.839 7.16161 12.855 7.03918 12.8358 6.91975C12.8167 6.80033 12.7632 6.68906 12.6819 6.59953Z" fill="#DADAE5"/>
</svg>
