<svg width="19" height="20" viewBox="0 0 19 20" fill="none" xmlns="http://www.w3.org/2000/svg">
<path d="M14.2836 3.03015C14.4747 3.03018 14.6591 3.10033 14.8019 3.2273C14.9447 3.35428 15.0359 3.52924 15.0583 3.71901L15.0637 3.81029V16.2924C15.0635 16.4913 14.9874 16.6825 14.8509 16.8271C14.7144 16.9717 14.5278 17.0587 14.3293 17.0704C14.1308 17.082 13.9354 17.0174 13.7829 16.8898C13.6304 16.7622 13.5324 16.5812 13.5089 16.3837L13.5035 16.2924V12.3918H12.7233C12.5322 12.3917 12.3478 12.3216 12.205 12.1946C12.0622 12.0676 11.971 11.8927 11.9487 11.7029L11.9432 11.6116V6.93082C11.9432 5.20673 13.1134 3.03015 14.2836 3.03015ZM9.60279 3.03015C9.79387 3.03018 9.9783 3.10033 10.1211 3.2273C10.2639 3.35428 10.3551 3.52924 10.3775 3.71901L10.3829 3.81029V7.71096C10.3828 8.40284 10.1529 9.07508 9.7293 9.62212C9.30568 10.1691 8.71236 10.56 8.04252 10.7332V16.2924C8.0423 16.4913 7.96616 16.6825 7.82966 16.8271C7.69316 16.9717 7.5066 17.0587 7.3081 17.0704C7.1096 17.082 6.91415 17.0174 6.76167 16.8898C6.60919 16.7622 6.51119 16.5812 6.48771 16.3837L6.48225 16.2924V10.7332C5.83899 10.5669 5.26556 10.1997 4.84534 9.6851C4.42513 9.17046 4.18005 8.53518 4.14575 7.87167L4.14185 7.71096V3.81029C4.14207 3.61145 4.2182 3.42019 4.3547 3.27561C4.4912 3.13102 4.67776 3.04401 4.87626 3.03236C5.07476 3.0207 5.27022 3.08529 5.4227 3.21291C5.57518 3.34053 5.67317 3.52156 5.69665 3.71901L5.70211 3.81029V7.71096C5.70212 7.98484 5.77422 8.25389 5.91116 8.49107C6.0481 8.72825 6.24506 8.92521 6.48225 9.06215V3.81029C6.48247 3.61145 6.55861 3.42019 6.69511 3.27561C6.83161 3.13102 7.01817 3.04401 7.21666 3.03236C7.41516 3.0207 7.61062 3.08529 7.7631 3.21291C7.91558 3.34053 8.01357 3.52156 8.03706 3.71901L8.04252 3.81029L8.0433 9.06215C8.261 8.93631 8.44507 8.75971 8.57982 8.54741C8.71456 8.3351 8.796 8.09337 8.81719 7.8428L8.82265 7.71096V3.81029C8.82265 3.60338 8.90485 3.40495 9.05115 3.25865C9.19745 3.11234 9.39588 3.03015 9.60279 3.03015Z" fill="#F5313F"/>
</svg>
