<svg width="21" height="20" viewBox="0 0 21 20" fill="none" xmlns="http://www.w3.org/2000/svg">
<path d="M10.3883 0.288208C8.47767 0.288208 6.60991 0.842195 5.02126 1.88011C3.4326 2.91803 2.19439 4.39327 1.46321 6.11926C0.73203 7.84526 0.54072 9.7445 0.913472 11.5768C1.28622 13.4091 2.2063 15.0922 3.55734 16.4132C4.90838 17.7342 6.62972 18.6339 8.50367 18.9983C10.3776 19.3628 12.32 19.1757 14.0852 18.4608C15.8505 17.7459 17.3592 16.5352 18.4207 14.9818C19.4822 13.4285 20.0488 11.6022 20.0488 9.73402C20.0488 7.22883 19.031 4.82626 17.2193 3.05482C15.4076 1.28339 12.9505 0.288208 10.3883 0.288208ZM10.2555 15.5491C10.0585 15.5491 9.86585 15.492 9.70202 15.3849C9.53819 15.2779 9.4105 15.1258 9.3351 14.9478C9.2597 14.7698 9.23997 14.5739 9.27841 14.385C9.31685 14.196 9.41173 14.0224 9.55106 13.8862C9.69038 13.75 9.8679 13.6572 10.0611 13.6196C10.2544 13.582 10.4547 13.6013 10.6367 13.675C10.8188 13.7488 10.9744 13.8736 11.0838 14.0338C11.1933 14.194 11.2517 14.3823 11.2517 14.575C11.2517 14.8333 11.1468 15.0811 10.9599 15.2638C10.7731 15.4465 10.5197 15.5491 10.2555 15.5491ZM11.0827 10.7908V11.8062C11.0814 12.0127 10.9994 12.2109 10.8535 12.3602C10.7075 12.5095 10.5087 12.5985 10.2978 12.6091H10.2314C10.1246 12.613 10.0181 12.5963 9.918 12.5597C9.81791 12.5232 9.7262 12.4677 9.64817 12.3963C9.57015 12.325 9.50735 12.2392 9.46339 12.144C9.41944 12.0488 9.39521 11.946 9.3921 11.8416V10.2122C9.38214 10.1176 9.39196 10.0219 9.42094 9.9311C9.44993 9.84027 9.49748 9.75615 9.56072 9.68383C9.62395 9.61151 9.70155 9.55251 9.78881 9.51039C9.87607 9.46828 9.97116 9.44394 10.0683 9.43884C11.0163 9.36799 12.5921 9.02558 12.5921 7.52016C12.5921 6.43979 11.7408 5.70774 10.5212 5.70774C10.0588 5.71521 9.6036 5.82037 9.18672 6.01602C8.76985 6.21168 8.40119 6.49319 8.10605 6.84124C7.99442 6.95721 7.85004 7.03811 7.69127 7.07364C7.53249 7.10917 7.3665 7.09773 7.2144 7.04077C7.06229 6.98381 6.93095 6.88391 6.83706 6.75377C6.74318 6.62363 6.691 6.46913 6.68716 6.30991C6.69072 6.08735 6.78403 5.87518 6.94679 5.71955C7.39517 5.21198 7.95194 4.80673 8.57785 4.53235C9.20377 4.25796 9.88361 4.12113 10.5695 4.13147C12.8035 4.13147 14.3612 5.48931 14.3612 7.43751C14.3612 9.23811 13.1718 10.4425 11.0827 10.7908Z" fill="#F5313F"/>
</svg>
