<svg width="17" height="16" viewBox="0 0 17 16" fill="none" xmlns="http://www.w3.org/2000/svg">
<path d="M16.562 7.87699L8.91935 0.641831C8.86432 0.589596 8.79895 0.548155 8.727 0.51988C8.65505 0.491605 8.57791 0.477051 8.50001 0.477051C8.42211 0.477051 8.34498 0.491605 8.27302 0.51988C8.20107 0.548155 8.1357 0.589596 8.08068 0.641831L0.438 7.87699C0.215344 8.08793 0.0891724 8.37445 0.0891724 8.67328C0.0891724 9.29379 0.621692 9.79828 1.27667 9.79828H2.08195V14.961C2.08195 15.2721 2.34728 15.5235 2.6757 15.5235H7.31251V11.586H9.39064V15.5235H14.3243C14.6527 15.5235 14.9181 15.2721 14.9181 14.961V9.79828H15.7233C16.0388 9.79828 16.3412 9.6805 16.5639 9.46781C17.0259 9.02836 17.0259 8.31644 16.562 7.87699Z" fill="#F5313F"/>
</svg>
