<svg width="18" height="20" viewBox="0 0 18 20" fill="none" xmlns="http://www.w3.org/2000/svg">
<path d="M9.01328 0.726624C11.2401 0.726624 13.3757 1.57964 14.9503 3.09803C16.525 4.61641 17.4096 6.67578 17.4096 8.8231C17.4096 12.6919 14.7018 16.253 9.38832 19.5131C9.27618 19.5818 9.1461 19.6182 9.01328 19.6182C8.88046 19.6182 8.75038 19.5818 8.63825 19.5131C3.3248 16.253 0.617004 12.6919 0.617004 8.8231C0.617004 6.67578 1.50161 4.61641 3.07622 3.09803C4.65082 1.57964 6.78645 0.726624 9.01328 0.726624ZM9.01328 6.12427C8.27101 6.12427 7.55913 6.40861 7.03426 6.91474C6.50939 7.42087 6.21452 8.10732 6.21452 8.8231C6.21452 9.53887 6.50939 10.2253 7.03426 10.7315C7.55913 11.2376 8.27101 11.5219 9.01328 11.5219C9.75556 11.5219 10.4674 11.2376 10.9923 10.7315C11.5172 10.2253 11.812 9.53887 11.812 8.8231C11.812 8.10732 11.5172 7.42087 10.9923 6.91474C10.4674 6.40861 9.75556 6.12427 9.01328 6.12427Z" fill="#F5313F"/>
</svg>
