<svg width="22" height="20" viewBox="0 0 22 20" fill="none" xmlns="http://www.w3.org/2000/svg">
<path d="M0.727844 9.76845L5.97552 13.9666V10.818H15.4213V8.71892H5.97552V5.57031L0.727844 9.76845Z" fill="#F5313F"/>
<path d="M12.2738 0.32163C11.0327 0.318189 9.80334 0.56104 8.65682 1.03612C7.5103 1.51119 6.46944 2.20905 5.59454 3.08925L7.07859 4.5733C8.46607 3.18581 10.3112 2.4207 12.2738 2.4207C14.2364 2.4207 16.0815 3.18581 17.469 4.5733C18.8565 5.96078 19.6216 7.80586 19.6216 9.76849C19.6216 11.7311 18.8565 13.5762 17.469 14.9637C16.0815 16.3512 14.2364 17.1163 12.2738 17.1163C10.3112 17.1163 8.46607 16.3512 7.07859 14.9637L5.59454 16.4477C7.3777 18.2319 9.74965 19.2154 12.2738 19.2154C14.7979 19.2154 17.1699 18.2319 18.953 16.4477C20.7372 14.6646 21.7206 12.2926 21.7206 9.76849C21.7206 7.24436 20.7372 4.87241 18.953 3.08925C18.0781 2.20905 17.0373 1.51119 15.8907 1.03612C14.7442 0.56104 13.5148 0.318189 12.2738 0.32163Z" fill="#F5313F"/>
</svg>
