<svg width="20" height="20" viewBox="0 0 20 20" fill="none" xmlns="http://www.w3.org/2000/svg">
<path d="M0.727844 2.86384C0.727844 2.14808 1.01218 1.46162 1.51831 0.9555C2.02443 0.449376 2.71088 0.165039 3.42665 0.165039H12.8725C13.5882 0.165039 14.2747 0.449376 14.7808 0.9555C15.2869 1.46162 15.5713 2.14808 15.5713 2.86384V12.3097H19.6195V15.0085C19.6195 16.0821 19.193 17.1118 18.4338 17.871C17.6746 18.6302 16.6449 19.0567 15.5713 19.0567H4.77605C3.7024 19.0567 2.67272 18.6302 1.91354 17.871C1.15435 17.1118 0.727844 16.0821 0.727844 15.0085V2.86384ZM15.5713 17.7073C16.287 17.7073 16.9735 17.4229 17.4796 16.9168C17.9857 16.4107 18.2701 15.7242 18.2701 15.0085V13.6591H15.5713V17.7073ZM5.45075 4.21324C5.27181 4.21324 5.1002 4.28433 4.97367 4.41086C4.84713 4.53739 4.77605 4.709 4.77605 4.88795C4.77605 5.06689 4.84713 5.2385 4.97367 5.36503C5.1002 5.49156 5.27181 5.56265 5.45075 5.56265H10.8484C11.0273 5.56265 11.1989 5.49156 11.3254 5.36503C11.452 5.2385 11.5231 5.06689 11.5231 4.88795C11.5231 4.709 11.452 4.53739 11.3254 4.41086C11.1989 4.28433 11.0273 4.21324 10.8484 4.21324H5.45075ZM5.45075 8.26145C5.27181 8.26145 5.1002 8.33253 4.97367 8.45906C4.84713 8.5856 4.77605 8.75721 4.77605 8.93615C4.77605 9.11509 4.84713 9.28671 4.97367 9.41324C5.1002 9.53977 5.27181 9.61085 5.45075 9.61085H10.8484C11.0273 9.61085 11.1989 9.53977 11.3254 9.41324C11.452 9.28671 11.5231 9.11509 11.5231 8.93615C11.5231 8.75721 11.452 8.5856 11.3254 8.45906C11.1989 8.33253 11.0273 8.26145 10.8484 8.26145H5.45075ZM5.45075 12.3097C5.27181 12.3097 5.1002 12.3807 4.97367 12.5073C4.84713 12.6338 4.77605 12.8054 4.77605 12.9844C4.77605 13.1633 4.84713 13.3349 4.97367 13.4614C5.1002 13.588 5.27181 13.6591 5.45075 13.6591H8.14955C8.3285 13.6591 8.50011 13.588 8.62664 13.4614C8.75317 13.3349 8.82425 13.1633 8.82425 12.9844C8.82425 12.8054 8.75317 12.6338 8.62664 12.5073C8.50011 12.3807 8.3285 12.3097 8.14955 12.3097H5.45075Z" fill="#F5313F"/>
</svg>
