<svg width="22" height="13" viewBox="0 0 22 13" fill="none" xmlns="http://www.w3.org/2000/svg">
<path d="M20.4696 0.437195H1.76688C1.19314 0.437195 0.727844 0.89544 0.727844 1.46049V11.6935C0.727844 12.2585 1.19314 12.7168 1.76688 12.7168H20.4696C21.0433 12.7168 21.5086 12.2585 21.5086 11.6935V1.46049C21.5086 0.89544 21.0433 0.437195 20.4696 0.437195ZM2.2864 11.1818V9.13521C3.43422 9.13521 4.36448 10.0514 4.36448 11.1818H2.2864ZM2.2864 4.01873V1.97214H4.36448C4.36448 3.10256 3.43422 4.01873 2.2864 4.01873ZM11.1182 9.64686C9.68339 9.64686 8.52064 8.27213 8.52064 6.57697C8.52064 4.8815 9.68371 3.50708 11.1182 3.50708C12.5528 3.50708 13.7158 4.8815 13.7158 6.57697C13.7158 8.27277 12.5524 9.64686 11.1182 9.64686ZM19.9501 11.1818H17.872C17.872 10.0514 18.8023 9.13521 19.9501 9.13521V11.1818ZM19.9501 4.01873C18.8023 4.01873 17.872 3.10256 17.872 1.97214H19.9501V4.01873Z" fill="#F5313F"/>
</svg>
