<svg width="30" height="30" viewBox="0 0 30 30" fill="none" xmlns="http://www.w3.org/2000/svg">
<path d="M9.30818 0.00895987C8.36128 -0.080106 7.48 0.502338 7.238 1.4223L6.37019 4.71949C17.3639 5.04118 24.8009 12.3727 25.2661 23.2944L28.6026 22.3698C29.5237 22.1143 30.0962 21.2166 29.9866 20.2662C28.7631 9.6732 19.9673 1.01505 9.30818 0.00895987ZM5.88209 6.57171L0.0313061 28.8083C-0.0112273 28.9698 -0.0104068 29.1397 0.0336847 29.3009C0.0777761 29.462 0.163579 29.6086 0.282438 29.726C0.401297 29.8434 0.549008 29.9273 0.710671 29.9694C0.872333 30.0115 1.04223 30.0101 1.20322 29.9656L23.411 23.8071C23.1608 13.5593 16.199 6.6889 5.88209 6.57406V6.57171ZM7.49933 24.3761C7.12848 24.3761 6.76596 24.2661 6.4576 24.0601C6.14925 23.8541 5.90892 23.5612 5.767 23.2186C5.62508 22.876 5.58795 22.499 5.6603 22.1352C5.73265 21.7715 5.91123 21.4374 6.17346 21.1752C6.4357 20.9129 6.7698 20.7343 7.13353 20.662C7.49725 20.5896 7.87427 20.6268 8.21689 20.7687C8.55951 20.9106 8.85236 21.1509 9.05839 21.4593C9.26443 21.7677 9.3744 22.1302 9.3744 22.501C9.3744 22.9983 9.17685 23.4753 8.8252 23.8269C8.47356 24.1786 7.99663 24.3761 7.49933 24.3761ZM10.3119 15.4695C9.94108 15.4695 9.57855 15.3595 9.2702 15.1535C8.96185 14.9475 8.72151 14.6546 8.5796 14.312C8.43768 13.9694 8.40054 13.5924 8.47289 13.2286C8.54524 12.8649 8.72383 12.5308 8.98606 12.2686C9.24829 12.0063 9.58239 11.8277 9.94612 11.7554C10.3098 11.683 10.6869 11.7202 11.0295 11.8621C11.3721 12.004 11.665 12.2444 11.871 12.5527C12.077 12.8611 12.187 13.2236 12.187 13.5944C12.187 14.0917 11.9894 14.5687 11.6378 14.9203C11.2862 15.272 10.8092 15.4695 10.3119 15.4695ZM16.4059 21.5635C16.035 21.5635 15.6725 21.4535 15.3642 21.2475C15.0558 21.0415 14.8155 20.7486 14.6736 20.406C14.5316 20.0634 14.4945 19.6863 14.5668 19.3226C14.6392 18.9589 14.8178 18.6248 15.08 18.3626C15.3422 18.1003 15.6764 17.9217 16.0401 17.8494C16.4038 17.777 16.7808 17.8142 17.1234 17.9561C17.4661 18.098 17.7589 18.3383 17.9649 18.6467C18.171 18.955 18.281 19.3176 18.281 19.6884C18.281 20.1857 18.0834 20.6627 17.7318 21.0143C17.3801 21.3659 16.9032 21.5635 16.4059 21.5635Z" fill="white"/>
</svg>
