<svg width="16" height="16" viewBox="0 0 16 16" fill="none" xmlns="http://www.w3.org/2000/svg">
<path d="M15.6377 7.87696L8.39729 0.641801C8.34516 0.589566 8.28323 0.548125 8.21507 0.51985C8.1469 0.491574 8.07382 0.47702 8.00002 0.47702C7.92622 0.47702 7.85315 0.491574 7.78498 0.51985C7.71681 0.548125 7.65489 0.589566 7.60276 0.641801L0.362329 7.87696C0.151392 8.0879 0.0318604 8.37442 0.0318604 8.67325C0.0318604 9.29375 0.536352 9.79825 1.15686 9.79825H1.91975V14.9609C1.91975 15.2721 2.17112 15.5234 2.48225 15.5234H6.87502V11.5859H8.84377V15.5234H13.5178C13.8289 15.5234 14.0803 15.2721 14.0803 14.9609V9.79825H14.8432C15.142 9.79825 15.4285 9.68047 15.6395 9.46778C16.0772 9.02833 16.0772 8.31641 15.6377 7.87696Z" fill="#6D6E9C"/>
</svg>
