<svg width="28" height="28" viewBox="0 0 28 28" fill="none" xmlns="http://www.w3.org/2000/svg">
<path d="M26.4589 1.77463C26.2518 1.72538 26.0339 1.75196 25.8447 1.84955L24.5 2.52111L23.1437 1.84299C23.0222 1.78225 22.8882 1.75062 22.7524 1.75062C22.6166 1.75062 22.4826 1.78225 22.3611 1.84299L20.9879 2.52166L19.6328 1.84299C19.5109 1.7818 19.3765 1.74994 19.2401 1.74994C19.1038 1.74994 18.9693 1.7818 18.8475 1.84299L17.4999 2.51947L16.1628 1.84463C16.0413 1.78302 15.9071 1.75064 15.7708 1.75007C15.6346 1.7495 15.5001 1.78076 15.3781 1.84135L13.9999 2.52221L12.6437 1.84244C12.522 1.78173 12.3879 1.75012 12.2519 1.75012C12.1159 1.75012 11.9817 1.78173 11.86 1.84244L10.4999 2.52111L9.14151 1.84244C8.96639 1.75465 8.76687 1.72817 8.57491 1.76724C8.38295 1.80631 8.20965 1.90866 8.08276 2.05791C7.946 2.22091 7.87226 2.42757 7.87495 2.64033V15.75L7.87768 15.7528H18.3749C18.8391 15.7528 19.2842 15.9371 19.6124 16.2653C19.9406 16.5935 20.1249 17.0386 20.1249 17.5028V23.1875C20.1249 24.879 21.9335 26.25 23.625 26.25H24.2812C25.0354 26.25 25.7587 25.9504 26.292 25.4171C26.8253 24.8838 27.125 24.1605 27.125 23.4063V2.62502C27.1251 2.42918 27.0596 2.23894 26.9388 2.08477C26.818 1.93059 26.649 1.82138 26.4589 1.77463ZM22.75 13.125H15.7773C15.3048 13.125 14.8968 12.7619 14.876 12.2894C14.8707 12.1713 14.8894 12.0534 14.9309 11.9427C14.9724 11.832 15.0359 11.7309 15.1176 11.6455C15.1993 11.56 15.2974 11.492 15.4061 11.4455C15.5148 11.399 15.6317 11.375 15.7499 11.375H22.7226C23.1951 11.375 23.6031 11.7381 23.6239 12.2106C23.6292 12.3287 23.6105 12.4467 23.569 12.5573C23.5275 12.668 23.464 12.7691 23.3823 12.8546C23.3006 12.94 23.2025 13.0081 23.0938 13.0545C22.9851 13.101 22.8682 13.125 22.75 13.125ZM22.75 8.75002H12.2773C11.8048 8.75002 11.3968 8.38689 11.376 7.91439C11.3707 7.79631 11.3894 7.67837 11.4309 7.5677C11.4724 7.45702 11.5359 7.35591 11.6176 7.27046C11.6993 7.185 11.7974 7.11698 11.9061 7.0705C12.0148 7.02402 12.1317 7.00005 12.2499 7.00002H22.7226C23.1951 7.00002 23.6031 7.36314 23.6239 7.83564C23.6292 7.95373 23.6105 8.07166 23.569 8.18234C23.5275 8.29301 23.464 8.39413 23.3823 8.47958C23.3006 8.56503 23.2025 8.63305 23.0938 8.67953C22.9851 8.72601 22.8682 8.74999 22.75 8.75002Z" fill="white"/>
<path d="M18.375 23.1875V18.375C18.375 18.1429 18.2828 17.9204 18.1187 17.7563C17.9546 17.5922 17.7321 17.5 17.5 17.5H2.625C2.16084 17.5014 1.71615 17.6867 1.38819 18.0151C1.06024 18.3436 0.875721 18.7886 0.875 19.2527C0.875 22.0172 1.19109 23.1667 1.66578 24.0417C2.47133 25.5276 3.92984 26.25 6.125 26.25H19.5606C19.6038 26.25 19.646 26.2373 19.6819 26.2134C19.7179 26.1895 19.7459 26.1555 19.7626 26.1157C19.7793 26.0759 19.7838 26.032 19.7756 25.9897C19.7674 25.9473 19.7468 25.9083 19.7165 25.8776C19.1991 25.3586 18.375 24.6641 18.375 23.1875Z" fill="white"/>
</svg>
