<svg width="17" height="17" viewBox="0 0 17 17" fill="none" xmlns="http://www.w3.org/2000/svg">
<path d="M15.4572 5.26363C15.3921 5.16947 15.3051 5.09251 15.2036 5.03934C15.1022 4.98617 14.9895 4.95837 14.875 4.95834H5.19417L4.37675 2.99625C4.26957 2.73787 4.08808 2.51713 3.85529 2.36202C3.6225 2.20691 3.3489 2.12442 3.06917 2.125H1.41663V3.54167H3.06917L6.4295 11.606C6.48332 11.7351 6.57413 11.8453 6.69047 11.9228C6.80681 12.0003 6.94349 12.0417 7.08329 12.0417H12.75C13.0453 12.0417 13.3095 11.8582 13.4137 11.5827L15.5387 5.916C15.5788 5.80878 15.5924 5.69341 15.5782 5.57979C15.564 5.46617 15.5225 5.35769 15.4572 5.26363Z" fill="#F5313F"/>
<path d="M7.4375 14.875C8.0243 14.875 8.5 14.3993 8.5 13.8125C8.5 13.2257 8.0243 12.75 7.4375 12.75C6.8507 12.75 6.375 13.2257 6.375 13.8125C6.375 14.3993 6.8507 14.875 7.4375 14.875Z" fill="#F5313F"/>
<path d="M12.3959 14.875C12.9827 14.875 13.4584 14.3993 13.4584 13.8125C13.4584 13.2257 12.9827 12.75 12.3959 12.75C11.8091 12.75 11.3334 13.2257 11.3334 13.8125C11.3334 14.3993 11.8091 14.875 12.3959 14.875Z" fill="#F5313F"/>
</svg>
