<svg width="20" height="20" viewBox="0 0 20 20" fill="none" xmlns="http://www.w3.org/2000/svg">
<path d="M0.754505 7.46499C1.18567 6.19663 1.89283 5.03045 2.82922 4.04355C2.90675 3.96207 3.0077 3.90438 3.11936 3.87777C3.23102 3.85115 3.3484 3.85679 3.45672 3.89397L5.69077 4.65604C5.84947 4.70996 6.01846 4.73031 6.18614 4.71569C6.35381 4.70107 6.5162 4.65182 6.66214 4.57134C6.80807 4.49085 6.9341 4.38103 7.03155 4.24943C7.129 4.11782 7.19557 3.96755 7.22668 3.80895L7.65378 1.57943C7.67461 1.47106 7.72849 1.37104 7.8086 1.29201C7.88871 1.21299 7.99146 1.15849 8.10388 1.13541C9.46855 0.857939 10.8788 0.857939 12.2434 1.13541C12.4734 1.18265 12.6508 1.35742 12.6935 1.57943L13.1206 3.80895C13.1512 3.96782 13.2175 4.11841 13.3148 4.2503C13.4121 4.3822 13.5382 4.49224 13.6843 4.57281C13.8304 4.65338 13.993 4.70255 14.1609 4.71693C14.3287 4.7313 14.4979 4.71052 14.6565 4.65604L16.8906 3.89397C16.9989 3.85679 17.1163 3.85115 17.228 3.87777C17.3396 3.90438 17.4406 3.96207 17.5181 4.04355C18.4528 5.03078 19.1608 6.19593 19.5912 7.46499C19.6267 7.56986 19.6288 7.68251 19.5972 7.78853C19.5656 7.89455 19.5017 7.98912 19.4138 8.06016L17.6035 9.52604C17.4746 9.62994 17.371 9.7596 17.3 9.90593C17.2289 10.0523 17.192 10.2117 17.192 10.3731C17.192 10.5345 17.2289 10.694 17.3 10.8403C17.371 10.9867 17.4746 11.1163 17.6035 11.2202L19.4138 12.6861C19.5945 12.8325 19.6634 13.0671 19.5912 13.2813C19.1605 14.5495 18.4539 15.7157 17.5181 16.7027C17.4406 16.7842 17.3396 16.8419 17.228 16.8685C17.1163 16.8951 16.9989 16.8895 16.8906 16.8523L14.6565 16.0902C14.4978 16.0363 14.3289 16.016 14.1612 16.0306C13.9935 16.0452 13.8311 16.0944 13.6852 16.1749C13.5392 16.2554 13.4132 16.3652 13.3158 16.4968C13.2183 16.6284 13.1517 16.7787 13.1206 16.9373L12.6935 19.1668C12.6728 19.2755 12.6187 19.3758 12.5383 19.4549C12.4578 19.5339 12.3546 19.5882 12.2418 19.6109C10.8777 19.8883 9.468 19.8883 8.10388 19.6109C7.99116 19.5881 7.88805 19.5337 7.80763 19.4546C7.7272 19.3756 7.67308 19.2754 7.65214 19.1668L7.22668 16.9373C7.19609 16.7784 7.12983 16.6279 7.03251 16.496C6.93518 16.3641 6.80911 16.254 6.66302 16.1735C6.51693 16.0929 6.35432 16.0437 6.18645 16.0293C6.01857 16.015 5.84944 16.0357 5.69077 16.0902L3.45672 16.8523C3.3484 16.8895 3.23102 16.8951 3.11936 16.8685C3.0077 16.8419 2.90675 16.7842 2.82922 16.7027C1.89342 15.7157 1.18683 14.5495 0.756148 13.2813C0.720597 13.1764 0.718489 13.0638 0.750092 12.9577C0.781695 12.8517 0.845574 12.7571 0.933558 12.6861L2.7438 11.2202C2.87242 11.1162 2.9758 10.9865 3.04671 10.8402C3.11763 10.6938 3.15437 10.5345 3.15437 10.3731C3.15437 10.2118 3.11763 10.0524 3.04671 9.90611C2.9758 9.7598 2.87242 9.63009 2.7438 9.52604L0.933558 8.06016C0.845574 7.98912 0.781695 7.89455 0.750092 7.78853C0.718489 7.68251 0.720597 7.56986 0.756148 7.46499H0.754505ZM7.29732 10.3731C7.29732 11.1039 7.60019 11.8048 8.1393 12.3215C8.67841 12.8382 9.4096 13.1285 10.172 13.1285C10.9344 13.1285 11.6656 12.8382 12.2047 12.3215C12.7438 11.8048 13.0467 11.1039 13.0467 10.3731C13.0467 9.64235 12.7438 8.9415 12.2047 8.42476C11.6656 7.90802 10.9344 7.61772 10.172 7.61772C9.4096 7.61772 8.67841 7.90802 8.1393 8.42476C7.60019 8.9415 7.29732 9.64235 7.29732 10.3731Z" fill="#F5313F"/>
</svg>
