<svg width="30" height="28" viewBox="0 0 30 28" fill="none" xmlns="http://www.w3.org/2000/svg">
<path d="M29.985 9.22629L28.7269 16.2411C28.5717 17.016 27.9365 17.4872 27.204 17.496H8.8625L8.49835 19.491H25.979C26.8995 19.559 27.5238 20.1928 27.5351 21.0034C27.4681 21.8962 26.8161 22.5047 25.979 22.5157H6.64432C5.59865 22.4243 4.97512 21.6142 5.08827 20.7138L5.91595 16.3376L4.65787 4.04556L1.0823 2.95158C0.208522 2.6144 -0.148103 1.84613 0.0559724 1.05309C0.395297 0.226583 1.20837 -0.151037 2.0093 0.0555714L6.5781 1.47141C7.1936 1.69566 7.54767 2.18534 7.63752 2.75853L7.90237 5.20406L28.6275 7.4565C29.5798 7.65699 30.0968 8.39009 29.985 9.22629ZM11.3818 25.6913C11.3818 26.9663 10.3183 28 9.00635 28C7.69442 28 6.63092 26.9663 6.63092 25.6913C6.63092 24.4161 7.69445 23.3825 9.00635 23.3825C10.3183 23.3825 11.3818 24.4162 11.3818 25.6913ZM25.5631 25.6913C25.5631 26.9663 24.4996 28 23.1876 28C21.8757 28 20.8122 26.9663 20.8122 25.6913C20.8122 24.4161 21.8757 23.3825 23.1876 23.3825C24.4996 23.3825 25.5631 24.4162 25.5631 25.6913Z" fill="white"/>
</svg>
