<svg width="21" height="18" viewBox="0 0 21 18" fill="none" xmlns="http://www.w3.org/2000/svg">
<path d="M10.6459 0.904358C9.29348 0.904358 8.23686 1.40317 7.4761 2.4008C6.71534 3.39843 6.33495 4.6737 6.33495 6.22661C6.32556 8.15599 6.94544 9.68537 8.1946 10.8148C8.35426 10.9653 8.41062 11.1583 8.36366 11.3936L8.03963 12.0712C7.93631 12.2971 7.78369 12.4736 7.58176 12.6006C7.37983 12.7277 6.95483 12.9088 6.30678 13.1441C6.2786 13.1535 5.68455 13.3465 4.52462 13.7229C3.36469 14.0994 2.74715 14.3065 2.67202 14.3441C1.88308 14.6735 1.36651 15.017 1.12231 15.3747C0.859334 15.9676 0.727844 17.4688 0.727844 19.8781H20.5641C20.5641 17.4688 20.4326 15.9676 20.1696 15.3747C19.9254 15.017 19.4088 14.6735 18.6199 14.3441C18.5447 14.3065 17.9272 14.0994 16.7673 13.7229C15.6073 13.3465 15.0133 13.1535 14.9851 13.1441C14.3371 12.9088 13.9121 12.7277 13.7101 12.6006C13.5082 12.4736 13.3556 12.2971 13.2523 12.0712L12.9282 11.3936C12.8813 11.1583 12.9376 10.9653 13.0973 10.8148C14.3465 9.68537 14.9663 8.15599 14.9569 6.22661C14.9569 4.6737 14.5766 3.39843 13.8158 2.4008C13.055 1.40317 11.9984 0.904358 10.6459 0.904358Z" fill="#F5313F"/>
</svg>
